<?xml version="1.0" encoding="UTF-8"?>
<svg width="684px" height="184px" viewBox="0 0 684 184" version="1.1" xmlns="http://www.w3.org/2000/svg" xmlns:xlink="http://www.w3.org/1999/xlink">
    <title>编组</title>
    <g id="页面-1" stroke="none" stroke-width="1" fill="none" fill-rule="evenodd">
        <g id="画板" transform="translate(-98, -72)">
            <g id="编组" transform="translate(98, 72)">
                <g id="编组备份-2">
                    <path d="M38.6258387,43.1159642 C35.9548848,43.1421393 33.2948373,44.1727851 31.3284306,46.1239229 L31.3284306,46.1239229 C18.1841528,59.1744065 9.81574559,79.1678433 9.97824952,101.544308 L9.97824952,101.544308 C10.0524124,111.550842 11.8050555,121.101492 14.9667931,129.670576 L14.9667931,129.670576 C15.489205,128.426166 16.1010487,127.270098 16.8001428,125.937348 L16.8001428,125.937348 C27.375986,106.908028 49.6782874,92.7516452 76.5786867,89.7207833 L76.5786867,89.7207833 C69.4546888,84.3712411 63.029785,77.5995168 57.6562489,69.4906796 L57.6562489,69.4906796 C57.1185681,68.6967007 56.5830686,67.9038124 56.1326382,67.0214923 L56.1326382,67.0214923 C37.6235494,79.1122212 24.4465527,93.8226443 18.4524479,109.895265 L18.4524479,109.895265 C22.8215133,89.6717049 35.6255145,72.3961191 53.082145,61.6414125 L53.082145,61.6414125 C51.5683499,58.6999822 50.4668132,55.5753261 49.2540322,52.5041108 L49.2540322,52.5041108 C48.1786706,49.7786254 47.2549066,46.9386238 44.8337071,45.1194523 L44.8337071,45.1194523 C43.0668858,43.792155 40.9532441,43.1377768 38.8363304,43.1159642 L38.8363304,43.1159642 L38.6258387,43.1159642 Z" id="Fill-1备份-2" fill="#3F66FF" transform="translate(43.2773, 86.3933) rotate(-90) translate(-43.2773, -86.3933)"></path>
                    <path d="M69.4900053,126.344425 C68.6982076,126.882106 67.9042286,127.417606 67.0219086,127.868036 L67.0219086,127.868036 C79.1137281,146.377125 93.8219699,159.554122 109.895681,165.548226 L109.895681,165.548226 C89.6710306,161.179161 72.3965353,148.37516 61.6418288,130.918529 L61.6418288,130.918529 C58.6993079,132.432324 55.5757424,133.533861 52.5045271,134.746642 L52.5045271,134.746642 C49.7779511,135.822004 46.9390401,136.745768 45.1209592,139.166967 L45.1209592,139.166967 C42.0737378,143.220841 42.5743372,149.096067 46.1243392,152.672244 L46.1243392,152.672244 C59.1759134,165.816522 79.167169,174.184929 101.544724,174.022425 L101.544724,174.022425 C111.551258,173.948262 121.102999,172.195619 129.669901,169.033881 L129.669901,169.033881 C128.426583,168.511469 127.270514,167.899626 125.936673,167.200532 L125.936673,167.200532 C106.907354,156.624688 92.7520615,134.322387 89.7211996,107.421988 L89.7211996,107.421988 C84.3705667,114.545986 77.5988424,120.970889 69.4900053,126.344425" id="Fill-3备份-2" fill="#1A79FF" transform="translate(86.3933, 140.7234) rotate(-90) translate(-86.3933, -140.7234)"></path>
                    <path d="M167.201607,58.0646601 C156.625764,77.0939796 134.323462,91.2492718 107.421972,94.2801338 L107.421972,94.2801338 C114.54597,99.6307666 120.971965,106.402491 126.34441,114.511328 L126.34441,114.511328 C126.883181,115.303126 127.418681,116.097105 127.869111,116.979425 L127.869111,116.979425 C146.3782,104.887605 159.555197,90.1793634 165.548211,74.1056523 L165.548211,74.1056523 C161.180236,94.3303028 148.375145,111.604798 130.918514,122.359505 L130.918514,122.359505 C132.432309,125.302025 133.534936,128.425591 134.746627,131.496806 L134.746627,131.496806 C135.823079,134.223382 136.746843,137.062293 139.166952,138.880374 L139.166952,138.880374 C143.220825,141.927596 149.097142,141.426996 152.672228,137.876994 L152.672228,137.876994 C165.816506,124.82542 174.186004,104.834164 174.022409,82.4566094 L174.022409,82.4566094 C173.949337,72.4500753 172.196694,62.8983341 169.033866,54.3314321 L169.033866,54.3314321 C168.512545,55.5747508 167.900701,56.7308191 167.201607,58.0646601" id="Fill-5备份-2" fill="#14AEFF" transform="translate(140.7234, 97.6081) rotate(-90) translate(-140.7234, -97.6081)"></path>
                    <path d="M82.4571129,9.97817771 C72.4505788,10.0512499 62.8999282,11.803893 54.330845,14.9667212 L54.330845,14.9667212 C55.5752543,15.4880426 56.7313225,16.0998863 58.0640729,16.7989803 L58.0640729,16.7989803 C77.0933925,27.3748235 91.2497753,49.677125 94.2806372,76.5786149 L94.2806372,76.5786149 C99.6301794,69.454617 106.401904,63.0286226 114.510741,57.6561771 L114.510741,57.6561771 C115.30472,57.1174057 116.097608,56.5819062 116.979928,56.1314758 L116.979928,56.1314758 C104.889199,37.6223869 90.1787762,24.4453902 74.1061557,18.4523761 L74.1061557,18.4523761 C94.3297156,22.8203509 111.605301,35.6254426 122.360008,53.0820731 L122.360008,53.0820731 C125.301438,51.5682781 128.426094,50.4656508 131.49731,49.2539604 L131.49731,49.2539604 C134.222795,48.1775081 137.062797,47.2537442 138.881968,44.8336353 L138.881968,44.8336353 C140.210356,43.0657234 140.864734,40.9520816 140.885456,38.8329867 L140.885456,38.8329867 L140.885456,38.6235857 C140.859281,35.9537224 139.828635,33.2925842 137.877498,31.3283588 L137.877498,31.3283588 C124.952437,18.3105941 105.217479,9.97599645 83.1027661,9.97599645 L83.1027661,9.97599645 C82.8868212,9.97599645 82.6730577,9.97599645 82.4571129,9.97817771" id="Fill-7备份-2" fill="#09CBFF" transform="translate(97.6082, 43.2773) rotate(-90) translate(-97.6082, -43.2773)"></path>
                </g>
                <g id="编组备份-3" transform="translate(200, 47)" fill="#2B2B2B">
                    <polygon id="Fill-1" points="34.544 0 0 89.557 16.119 89.557 42.603 20.902 57.302 59 34.735 59 29.396 72.814 62.623 72.814 69.088 89.557 85.208 89.557 50.664 0"></polygon>
                    <polygon id="Fill-2" points="249.7872 89.559 263.6022 89.559 263.6022 0 249.7872 0"></polygon>
                    <path d="M163.3035,22.2306 L163.3035,36.0346 C159.1625,34.9786 154.8585,35.3036 150.9615,37.0086 C148.3635,38.2266 146.0085,40.0136 144.2215,42.2866 C142.3545,44.4796 141.0545,46.9966 140.2435,49.8386 L140.2435,36.0346 C141.7855,31.7306 144.7085,28.0766 148.4445,25.5596 C152.8285,22.6366 158.1075,21.4996 163.3035,22.2306" id="Fill-3"></path>
                    <polygon id="Fill-5" points="94.5182 89.557 108.3352 89.557 108.3352 22.221 94.5182 22.221"></polygon>
                    <path d="M411.5163,22.2539 L411.5163,87.4579 C411.3533,92.8169 409.5673,97.9319 406.4003,102.2359 C398.5243,112.3859 385.0453,112.8729 380.8223,112.9539 C377.4933,112.9539 362.3903,113.6039 353.7833,103.2099 C351.2653,100.2869 349.5603,96.7139 348.7483,92.9789 L363.0393,92.9789 C364.0143,94.8469 365.3133,96.4709 366.9373,97.8509 C370.8353,101.0989 375.8693,102.6419 380.9853,102.2359 C382.4463,102.2359 390.1603,101.2609 394.0583,96.3079 C396.0883,93.7909 397.3873,90.7049 397.6313,87.4579 L397.6313,80.3929 C392.3523,86.2399 384.9633,89.8939 377.0063,89.8939 C360.6043,89.8939 347.3683,74.7089 347.3683,55.9519 C347.3683,37.1949 360.6043,22.0099 377.0063,22.0099 L390.8103,22.0099 L390.8103,35.8139 L377.0063,35.8139 C375.0573,35.8139 373.1083,36.3009 371.4033,37.1949 C371.1593,37.2759 370.9163,37.4379 370.7543,37.6009 C368.6423,38.7379 366.7753,40.4429 365.3133,42.6349 C364.5823,43.6909 363.9333,44.8279 363.3653,46.0449 C362.7153,47.2639 362.3093,48.4809 361.9843,49.7809 C361.4973,51.7299 361.1723,53.7599 361.1723,55.9519 C361.1723,58.1439 361.4973,60.1739 361.9843,62.1229 C362.3093,63.4219 362.7153,64.6399 363.3653,65.8579 C363.9333,67.0759 364.5823,68.2129 365.3133,69.2689 C366.7753,71.4609 368.6423,73.1659 370.7543,74.3029 C370.9163,74.4649 371.1593,74.6279 371.4033,74.7089 C373.8393,76.0079 376.6003,76.8199 379.4423,76.8199 C389.5113,76.8199 397.6313,67.4819 397.6313,55.9519 L397.6313,22.2539 L411.5163,22.2539 Z" id="Fill-7"></path>
                    <path d="M284.7767,31.2311 C278.9207,37.0811 275.6277,45.0141 275.6157,53.2901 L275.6157,59.4801 C275.8387,67.6121 279.2217,75.3371 285.0527,81.0111 C290.8807,86.6851 298.6987,89.8591 306.8327,89.8591 C314.9667,89.8591 322.7807,86.6851 328.6117,81.0111 C334.4397,75.3371 337.8267,67.6121 338.0457,59.4801 L338.0457,53.2901 C338.0337,45.0181 334.7437,37.0881 328.8917,31.2391 C323.0437,25.3901 315.1127,22.0981 306.8447,22.0861 C298.5687,22.0921 290.6327,25.3811 284.7767,31.2311 Z M319.1377,40.9951 C322.3987,44.2561 324.2297,48.6781 324.2297,53.2901 L324.2297,59.4801 C324.0637,63.9851 322.1587,68.2501 318.9137,71.3791 C315.6697,74.5081 311.3407,76.2571 306.8327,76.2571 C302.3247,76.2571 297.9917,74.5081 294.7467,71.3791 C291.5017,68.2501 289.5977,63.9851 289.4347,59.4801 L289.4347,53.2901 C289.4387,48.6761 291.2747,44.2541 294.5397,40.9941 C297.8047,37.7341 302.2317,35.9031 306.8447,35.9031 C311.4537,35.9031 315.8767,37.7351 319.1377,40.9951 Z" id="Fill-8"></path>
                    <polygon id="Fill-9" points="483.3025 22.2272 459.6955 83.9832 452.7975 102.0612 448.7585 112.5652 434.9445 112.5652 445.8635 84.0012 445.8635 83.9832 422.2395 22.2272 436.0535 22.2272 452.7795 65.9052 452.7795 65.9232 452.7975 65.9052 469.4885 22.2272"></polygon>
                    <polygon id="Fill-10" points="94.4822 15.19 108.3672 15.19 108.3672 0.33 94.4822 0.33"></polygon>
                    <polygon id="Fill-11" points="94.4822 89.893 108.3672 89.893 108.3672 22.01 94.4822 22.01"></polygon>
                    <polygon id="Fill-12" points="126.4592 89.859 140.2762 89.859 140.2762 22.015 126.4592 22.015"></polygon>
                    <path d="M231.6284,22.0101 L231.6284,89.8931 L217.8244,89.8931 L217.8244,80.3121 C212.5464,86.2391 205.1574,89.8931 197.1994,89.8931 C180.7974,89.8931 167.5614,74.7091 167.5614,55.9521 C167.5614,37.1951 180.7974,22.0101 197.1994,22.0101 L211.0034,22.0101 L211.0034,35.8141 L197.1994,35.8141 C195.2514,35.8141 193.3024,36.3011 191.5974,37.1951 C191.3534,37.2761 191.1094,37.4381 190.9474,37.6011 C188.8364,38.7381 186.9684,40.4431 185.5074,42.6351 C184.7764,43.6911 184.1264,44.8281 183.5584,46.0451 C182.9084,47.2641 182.5024,48.4811 182.1784,49.7811 C181.6904,51.7291 181.3654,53.7591 181.3654,55.9521 C181.3654,58.1441 181.6904,60.1741 182.1784,62.1231 C182.5024,63.4221 182.9084,64.6401 183.5584,65.8581 C184.1264,67.0761 184.7764,68.2131 185.5074,69.2681 C186.9684,71.4611 188.8364,73.1661 190.9474,74.3031 C191.1094,74.4651 191.3534,74.6281 191.5974,74.7091 C194.0324,76.0081 196.7934,76.8201 199.6354,76.8201 C209.7044,76.8201 217.8244,67.4821 217.8244,55.9521 L217.8244,22.0101 L231.6284,22.0101 Z" id="Fill-13"></path>
                </g>
            </g>
        </g>
    </g>
</svg>